<?xml version="1.0" encoding="iso-8859-1"?>
<!-- Generator: Adobe Illustrator 19.0.0, SVG Export Plug-In . SVG Version: 6.00 Build 0)  -->
<svg version="1.1" id="Layer_1" xmlns="http://www.w3.org/2000/svg" xmlns:xlink="http://www.w3.org/1999/xlink" x="0px" y="0px"
	 viewBox="0 0 511.999 511.999" style="enable-background:new 0 0 511.999 511.999;" xml:space="preserve">
<path style="fill:#CCD8E5;" d="M503.665,66.8v316.343c0,17.909-14.509,32.429-32.417,32.429H40.754
	c-17.909,0-32.418-14.52-32.418-32.429V66.8c0-17.909,14.509-32.429,32.418-32.429h430.493
	C489.155,34.371,503.665,48.891,503.665,66.8z"/>
<path style="fill:#DFEAF4;" d="M503.665,66.8v316.343c0,17.909-14.509,32.429-32.417,32.429H183.344l23.752-57.925L339.655,34.371
	h131.592C489.155,34.371,503.665,48.891,503.665,66.8z"/>
<path style="fill:#B8E9F2;" d="M503.665,66.8v290.847H8.337V66.8c0-17.909,14.509-32.429,32.418-32.429h430.493
	C489.155,34.371,503.665,48.891,503.665,66.8z"/>
<path style="fill:#D4F7FC;" d="M503.665,66.8v290.847H207.097L339.655,34.371h131.592C489.155,34.371,503.665,48.891,503.665,66.8z"
	/>
<polygon style="fill:#CCD8E5;" points="343.454,480.173 168.547,480.173 181.034,450.955 196.165,415.571 315.836,415.571 
	330.967,450.955 "/>
<polygon style="fill:#BAC6D1;" points="330.967,450.955 181.034,450.955 196.165,415.571 315.836,415.571 "/>
<polyline style="fill:#40728E;" points="366.155,125.747 402.816,125.747 402.816,314.042 145.842,314.042 145.842,277.38 "/>
<rect x="109.184" y="89.087" style="fill:#77B5D8;" width="256.974" height="188.295"/>
<g>
	<path style="fill:#E8C262;" d="M366.156,210.921L366.156,210.921l-66.457-48.737l-59.547,53.381l-66.724-53.381l0,0l0,0
		l-64.246,64.246l0,0l0,0v50.948h256.974V210.921L366.156,210.921z M240.152,215.565L240.152,215.565L240.152,215.565
		L240.152,215.565z"/>
	<circle style="fill:#E8C262;" cx="264.517" cy="131.025" r="18.886"/>
</g>
<path d="M402.817,116.139h-8.888c-4.603,0-8.332,3.731-8.332,8.332c0,4.602,3.729,8.332,8.332,8.332h0.555v171.631H154.174v-19.996
	h211.981c4.603,0,8.332-3.731,8.332-8.332V87.809c0-4.602-3.729-8.332-8.332-8.332H196.013c-4.603,0-8.332,3.731-8.332,8.332
	c0,4.602,3.729,8.332,8.332,8.332h161.811v97.065l-53.198-39.012c-3.176-2.331-7.554-2.116-10.49,0.514l-54.287,48.671
	l-61.216-48.973c-3.317-2.653-8.097-2.387-11.097,0.614l-50.018,50.018V96.141h50.72c4.603,0,8.332-3.731,8.332-8.332
	c0-4.602-3.729-8.332-8.332-8.332h-59.054c-4.603,0-8.332,3.731-8.332,8.332v188.297c0,4.602,3.729,8.332,8.332,8.332h28.325v28.328
	c0,4.602,3.729,8.332,8.332,8.332h256.975c4.603,0,8.332-3.731,8.332-8.332V124.471
	C411.149,119.869,407.419,116.139,402.817,116.139z M300.224,171.63l57.599,42.239v53.903h-37.48l-67.301-53.841L300.224,171.63z
	 M117.517,228.606l56.53-56.53l119.62,95.696H145.864c-0.007,0-0.014-0.001-0.021-0.001s-0.014,0.001-0.021,0.001h-28.304v-39.167
	H117.517z"/>
<path d="M291.74,129.753c0-15.008-12.209-27.218-27.218-27.218c-15.009,0-27.218,12.21-27.218,27.218s12.209,27.218,27.218,27.218
	C279.53,156.971,291.74,144.762,291.74,129.753z M253.968,129.753c0-5.819,4.735-10.554,10.554-10.554
	c5.819,0,10.554,4.735,10.554,10.554s-4.735,10.554-10.554,10.554C258.702,140.307,253.968,135.573,253.968,129.753z"/>
<path d="M471.246,24.766H40.754C18.283,24.766,0,43.049,0,65.52v59.227c0,4.602,3.731,8.332,8.332,8.332s8.332-3.731,8.332-8.332
	V65.52c0-13.284,10.807-24.09,24.09-24.09h430.492c13.284,0,24.09,10.807,24.09,24.09v284.411h-52.21
	c-4.602,0-8.332,3.731-8.332,8.332s3.731,8.332,8.332,8.332h52.21v15.273c0,13.284-10.807,24.09-24.09,24.09h-155.41H196.164H40.754
	c-13.284,0-24.09-10.807-24.09-24.09v-15.273h398.688c4.602,0,8.332-3.731,8.332-8.332s-3.731-8.332-8.332-8.332H16.664V152.522
	c0-4.602-3.731-8.332-8.332-8.332S0,147.92,0,152.522v229.348c0,22.472,18.283,40.754,40.754,40.754H183.54l-20.494,47.945h-40.034
	c-4.602,0-8.332,3.731-8.332,8.332s3.731,8.332,8.332,8.332h265.975c4.602,0,8.332-3.731,8.332-8.332s-3.731-8.332-8.332-8.332
	h-40.034l-20.494-47.945h142.786c22.472,0,40.754-18.282,40.754-40.754V65.52C512,43.049,493.717,24.766,471.246,24.766z
	 M330.83,470.568H181.17l14.238-33.31h121.185L330.83,470.568z"/>
<path d="M253.972,376.221c-3.517,0.879-6.116,4.048-6.291,7.67c-0.364,7.534,9.106,11.629,14.33,6.172
	c2.663-2.782,3.078-7.177,0.913-10.385C261.01,376.772,257.341,375.379,253.972,376.221z"/>
<g>
</g>
<g>
</g>
<g>
</g>
<g>
</g>
<g>
</g>
<g>
</g>
<g>
</g>
<g>
</g>
<g>
</g>
<g>
</g>
<g>
</g>
<g>
</g>
<g>
</g>
<g>
</g>
<g>
</g>
</svg>
